<mxfile host="app.diagrams.net" modified="2022-01-11T07:48:57.670Z" agent="5.0 (Macintosh; Intel Mac OS X 10_15_7) AppleWebKit/537.36 (KHTML, like Gecko) Chrome/97.0.4692.71 Safari/537.36" etag="nA7pWbM_lsNT1MA94IfM" version="15.8.8" type="github">
  <diagram id="5idHyZ_gb2aGsaYN54b_" name="Page-1">
    <mxGraphModel dx="828" dy="504" grid="1" gridSize="10" guides="1" tooltips="1" connect="1" arrows="1" fold="1" page="1" pageScale="1" pageWidth="1169" pageHeight="1654" math="0" shadow="0">
      <root>
        <mxCell id="0" />
        <mxCell id="1" parent="0" />
        <mxCell id="xrE74c7JUxFd1PG-Kwvo-1" value="Z" style="rounded=0;whiteSpace=wrap;html=1;" vertex="1" parent="1">
          <mxGeometry x="140" y="160" width="110" height="30" as="geometry" />
        </mxCell>
        <mxCell id="xrE74c7JUxFd1PG-Kwvo-4" value="" style="edgeStyle=orthogonalEdgeStyle;rounded=0;orthogonalLoop=1;jettySize=auto;html=1;" edge="1" parent="1" source="xrE74c7JUxFd1PG-Kwvo-2" target="xrE74c7JUxFd1PG-Kwvo-3">
          <mxGeometry relative="1" as="geometry" />
        </mxCell>
        <mxCell id="xrE74c7JUxFd1PG-Kwvo-2" value="" style="rounded=0;whiteSpace=wrap;html=1;" vertex="1" parent="1">
          <mxGeometry x="140" y="190" width="110" height="30" as="geometry" />
        </mxCell>
        <mxCell id="xrE74c7JUxFd1PG-Kwvo-3" value="" style="whiteSpace=wrap;html=1;rounded=0;" vertex="1" parent="1">
          <mxGeometry x="140" y="220" width="110" height="30" as="geometry" />
        </mxCell>
        <mxCell id="xrE74c7JUxFd1PG-Kwvo-5" value="A" style="whiteSpace=wrap;html=1;rounded=0;" vertex="1" parent="1">
          <mxGeometry x="140" y="340" width="110" height="30" as="geometry" />
        </mxCell>
        <mxCell id="xrE74c7JUxFd1PG-Kwvo-6" value="" style="rounded=0;whiteSpace=wrap;html=1;" vertex="1" parent="1">
          <mxGeometry x="140" y="280" width="110" height="30" as="geometry" />
        </mxCell>
        <mxCell id="xrE74c7JUxFd1PG-Kwvo-7" value="" style="rounded=0;whiteSpace=wrap;html=1;" vertex="1" parent="1">
          <mxGeometry x="140" y="310" width="110" height="30" as="geometry" />
        </mxCell>
        <mxCell id="xrE74c7JUxFd1PG-Kwvo-10" value="A" style="rounded=0;whiteSpace=wrap;html=1;" vertex="1" parent="1">
          <mxGeometry x="10" y="30" width="20" height="40" as="geometry" />
        </mxCell>
        <mxCell id="xrE74c7JUxFd1PG-Kwvo-11" value="" style="rounded=0;whiteSpace=wrap;html=1;" vertex="1" parent="1">
          <mxGeometry x="30" y="30" width="20" height="40" as="geometry" />
        </mxCell>
        <mxCell id="xrE74c7JUxFd1PG-Kwvo-12" value="" style="rounded=0;whiteSpace=wrap;html=1;" vertex="1" parent="1">
          <mxGeometry x="70" y="30" width="20" height="40" as="geometry" />
        </mxCell>
        <mxCell id="xrE74c7JUxFd1PG-Kwvo-13" value="" style="rounded=0;whiteSpace=wrap;html=1;" vertex="1" parent="1">
          <mxGeometry x="50" y="30" width="20" height="40" as="geometry" />
        </mxCell>
        <mxCell id="xrE74c7JUxFd1PG-Kwvo-16" value="" style="rounded=0;whiteSpace=wrap;html=1;" vertex="1" parent="1">
          <mxGeometry x="90" y="30" width="20" height="40" as="geometry" />
        </mxCell>
        <mxCell id="xrE74c7JUxFd1PG-Kwvo-17" value="" style="rounded=0;whiteSpace=wrap;html=1;" vertex="1" parent="1">
          <mxGeometry x="110" y="30" width="20" height="40" as="geometry" />
        </mxCell>
        <mxCell id="xrE74c7JUxFd1PG-Kwvo-18" value="Z" style="rounded=0;whiteSpace=wrap;html=1;" vertex="1" parent="1">
          <mxGeometry x="150" y="30" width="20" height="40" as="geometry" />
        </mxCell>
        <mxCell id="xrE74c7JUxFd1PG-Kwvo-19" value="" style="rounded=0;whiteSpace=wrap;html=1;" vertex="1" parent="1">
          <mxGeometry x="130" y="30" width="20" height="40" as="geometry" />
        </mxCell>
        <mxCell id="xrE74c7JUxFd1PG-Kwvo-20" value="Intepreter" style="label;whiteSpace=wrap;html=1;align=center;verticalAlign=bottom;spacingLeft=0;spacingBottom=4;imageAlign=center;imageVerticalAlign=top;image=img/clipart/Gear_128x128.png" vertex="1" parent="1">
          <mxGeometry x="340" y="195" width="120" height="80" as="geometry" />
        </mxCell>
        <mxCell id="xrE74c7JUxFd1PG-Kwvo-31" value="A" style="rounded=0;whiteSpace=wrap;html=1;" vertex="1" parent="1">
          <mxGeometry x="790" y="30" width="20" height="40" as="geometry" />
        </mxCell>
        <mxCell id="xrE74c7JUxFd1PG-Kwvo-32" value="" style="rounded=0;whiteSpace=wrap;html=1;" vertex="1" parent="1">
          <mxGeometry x="810" y="30" width="20" height="40" as="geometry" />
        </mxCell>
        <mxCell id="xrE74c7JUxFd1PG-Kwvo-33" value="" style="rounded=0;whiteSpace=wrap;html=1;" vertex="1" parent="1">
          <mxGeometry x="850" y="30" width="20" height="40" as="geometry" />
        </mxCell>
        <mxCell id="xrE74c7JUxFd1PG-Kwvo-34" value="" style="rounded=0;whiteSpace=wrap;html=1;" vertex="1" parent="1">
          <mxGeometry x="830" y="30" width="20" height="40" as="geometry" />
        </mxCell>
        <mxCell id="xrE74c7JUxFd1PG-Kwvo-35" value="" style="rounded=0;whiteSpace=wrap;html=1;" vertex="1" parent="1">
          <mxGeometry x="870" y="30" width="20" height="40" as="geometry" />
        </mxCell>
        <mxCell id="xrE74c7JUxFd1PG-Kwvo-36" value="" style="rounded=0;whiteSpace=wrap;html=1;" vertex="1" parent="1">
          <mxGeometry x="890" y="30" width="20" height="40" as="geometry" />
        </mxCell>
        <mxCell id="xrE74c7JUxFd1PG-Kwvo-37" value="Z" style="rounded=0;whiteSpace=wrap;html=1;" vertex="1" parent="1">
          <mxGeometry x="930" y="30" width="20" height="40" as="geometry" />
        </mxCell>
        <mxCell id="xrE74c7JUxFd1PG-Kwvo-38" value="" style="rounded=0;whiteSpace=wrap;html=1;" vertex="1" parent="1">
          <mxGeometry x="910" y="30" width="20" height="40" as="geometry" />
        </mxCell>
        <mxCell id="xrE74c7JUxFd1PG-Kwvo-41" value="RGB array" style="text;html=1;align=center;verticalAlign=middle;resizable=0;points=[];autosize=1;strokeColor=none;fillColor=none;" vertex="1" parent="1">
          <mxGeometry x="60" width="70" height="20" as="geometry" />
        </mxCell>
        <mxCell id="xrE74c7JUxFd1PG-Kwvo-42" value="" style="endArrow=classic;html=1;rounded=0;entryX=0.627;entryY=-0.167;entryDx=0;entryDy=0;entryPerimeter=0;" edge="1" parent="1" target="xrE74c7JUxFd1PG-Kwvo-1">
          <mxGeometry width="50" height="50" relative="1" as="geometry">
            <mxPoint x="20" y="80" as="sourcePoint" />
            <mxPoint x="230" y="50" as="targetPoint" />
          </mxGeometry>
        </mxCell>
        <mxCell id="xrE74c7JUxFd1PG-Kwvo-43" value="float" style="text;html=1;align=center;verticalAlign=middle;resizable=0;points=[];autosize=1;strokeColor=none;fillColor=none;" vertex="1" parent="1">
          <mxGeometry x="120" y="100" width="40" height="20" as="geometry" />
        </mxCell>
        <mxCell id="xrE74c7JUxFd1PG-Kwvo-45" value="" style="endArrow=none;dashed=1;html=1;dashPattern=1 3;strokeWidth=2;rounded=0;" edge="1" parent="1">
          <mxGeometry width="50" height="50" relative="1" as="geometry">
            <mxPoint x="147.5" y="270" as="sourcePoint" />
            <mxPoint x="242.5" y="270" as="targetPoint" />
          </mxGeometry>
        </mxCell>
        <mxCell id="xrE74c7JUxFd1PG-Kwvo-46" value="A" style="rounded=0;whiteSpace=wrap;html=1;" vertex="1" parent="1">
          <mxGeometry x="570" y="160" width="110" height="30" as="geometry" />
        </mxCell>
        <mxCell id="xrE74c7JUxFd1PG-Kwvo-47" value="" style="edgeStyle=orthogonalEdgeStyle;rounded=0;orthogonalLoop=1;jettySize=auto;html=1;" edge="1" parent="1" source="xrE74c7JUxFd1PG-Kwvo-48" target="xrE74c7JUxFd1PG-Kwvo-49">
          <mxGeometry relative="1" as="geometry" />
        </mxCell>
        <mxCell id="xrE74c7JUxFd1PG-Kwvo-48" value="" style="rounded=0;whiteSpace=wrap;html=1;" vertex="1" parent="1">
          <mxGeometry x="570" y="190" width="110" height="30" as="geometry" />
        </mxCell>
        <mxCell id="xrE74c7JUxFd1PG-Kwvo-49" value="" style="whiteSpace=wrap;html=1;rounded=0;" vertex="1" parent="1">
          <mxGeometry x="570" y="220" width="110" height="30" as="geometry" />
        </mxCell>
        <mxCell id="xrE74c7JUxFd1PG-Kwvo-50" value="Z" style="whiteSpace=wrap;html=1;rounded=0;" vertex="1" parent="1">
          <mxGeometry x="570" y="340" width="110" height="30" as="geometry" />
        </mxCell>
        <mxCell id="xrE74c7JUxFd1PG-Kwvo-51" value="" style="rounded=0;whiteSpace=wrap;html=1;" vertex="1" parent="1">
          <mxGeometry x="570" y="280" width="110" height="30" as="geometry" />
        </mxCell>
        <mxCell id="xrE74c7JUxFd1PG-Kwvo-52" value="" style="rounded=0;whiteSpace=wrap;html=1;" vertex="1" parent="1">
          <mxGeometry x="570" y="310" width="110" height="30" as="geometry" />
        </mxCell>
        <mxCell id="xrE74c7JUxFd1PG-Kwvo-53" value="" style="endArrow=none;dashed=1;html=1;dashPattern=1 3;strokeWidth=2;rounded=0;" edge="1" parent="1">
          <mxGeometry width="50" height="50" relative="1" as="geometry">
            <mxPoint x="577.5" y="270" as="sourcePoint" />
            <mxPoint x="672.5" y="270" as="targetPoint" />
          </mxGeometry>
        </mxCell>
        <mxCell id="xrE74c7JUxFd1PG-Kwvo-54" value="" style="endArrow=classic;html=1;rounded=0;" edge="1" parent="1">
          <mxGeometry width="50" height="50" relative="1" as="geometry">
            <mxPoint x="60" y="174.5" as="sourcePoint" />
            <mxPoint x="140" y="174.5" as="targetPoint" />
          </mxGeometry>
        </mxCell>
        <mxCell id="xrE74c7JUxFd1PG-Kwvo-55" value="position" style="text;html=1;align=center;verticalAlign=middle;resizable=0;points=[];autosize=1;strokeColor=none;fillColor=none;" vertex="1" parent="1">
          <mxGeometry x="60" y="150" width="60" height="20" as="geometry" />
        </mxCell>
        <mxCell id="xrE74c7JUxFd1PG-Kwvo-56" value="" style="endArrow=classic;html=1;rounded=0;" edge="1" parent="1">
          <mxGeometry width="50" height="50" relative="1" as="geometry">
            <mxPoint x="60" y="355" as="sourcePoint" />
            <mxPoint x="140" y="354.5" as="targetPoint" />
          </mxGeometry>
        </mxCell>
        <mxCell id="xrE74c7JUxFd1PG-Kwvo-57" value="limit" style="text;html=1;align=center;verticalAlign=middle;resizable=0;points=[];autosize=1;strokeColor=none;fillColor=none;" vertex="1" parent="1">
          <mxGeometry x="80" y="330" width="40" height="20" as="geometry" />
        </mxCell>
        <mxCell id="xrE74c7JUxFd1PG-Kwvo-58" value="" style="endArrow=classic;html=1;rounded=0;startArrow=none;" edge="1" parent="1" target="xrE74c7JUxFd1PG-Kwvo-46">
          <mxGeometry width="50" height="50" relative="1" as="geometry">
            <mxPoint x="780" y="175" as="sourcePoint" />
            <mxPoint x="770" y="174.5" as="targetPoint" />
            <Array as="points" />
          </mxGeometry>
        </mxCell>
        <mxCell id="xrE74c7JUxFd1PG-Kwvo-61" value="limit" style="text;html=1;align=center;verticalAlign=middle;resizable=0;points=[];autosize=1;strokeColor=none;fillColor=none;" vertex="1" parent="1">
          <mxGeometry x="710" y="330" width="40" height="20" as="geometry" />
        </mxCell>
        <mxCell id="xrE74c7JUxFd1PG-Kwvo-62" value="" style="edgeStyle=segmentEdgeStyle;endArrow=classic;html=1;rounded=0;" edge="1" parent="1">
          <mxGeometry width="50" height="50" relative="1" as="geometry">
            <mxPoint x="250" y="180" as="sourcePoint" />
            <mxPoint x="340" y="230" as="targetPoint" />
            <Array as="points">
              <mxPoint x="280" y="180" />
              <mxPoint x="280" y="230" />
            </Array>
          </mxGeometry>
        </mxCell>
        <mxCell id="xrE74c7JUxFd1PG-Kwvo-63" value="float" style="text;html=1;align=center;verticalAlign=middle;resizable=0;points=[];autosize=1;strokeColor=none;fillColor=none;" vertex="1" parent="1">
          <mxGeometry x="280" y="190" width="40" height="20" as="geometry" />
        </mxCell>
        <mxCell id="xrE74c7JUxFd1PG-Kwvo-59" value="position" style="text;html=1;align=center;verticalAlign=middle;resizable=0;points=[];autosize=1;strokeColor=none;fillColor=none;" vertex="1" parent="1">
          <mxGeometry x="710" y="150" width="60" height="20" as="geometry" />
        </mxCell>
        <mxCell id="xrE74c7JUxFd1PG-Kwvo-67" value="" style="endArrow=classic;html=1;rounded=0;startArrow=none;" edge="1" parent="1">
          <mxGeometry width="50" height="50" relative="1" as="geometry">
            <mxPoint x="780" y="354.5" as="sourcePoint" />
            <mxPoint x="680" y="354.5" as="targetPoint" />
            <Array as="points" />
          </mxGeometry>
        </mxCell>
        <mxCell id="xrE74c7JUxFd1PG-Kwvo-68" value="" style="edgeStyle=segmentEdgeStyle;endArrow=classic;html=1;rounded=0;" edge="1" parent="1">
          <mxGeometry width="50" height="50" relative="1" as="geometry">
            <mxPoint x="460" y="230" as="sourcePoint" />
            <mxPoint x="560" y="180" as="targetPoint" />
            <Array as="points">
              <mxPoint x="500" y="230" />
              <mxPoint x="500" y="180" />
            </Array>
          </mxGeometry>
        </mxCell>
        <mxCell id="xrE74c7JUxFd1PG-Kwvo-69" value="float" style="text;html=1;align=center;verticalAlign=middle;resizable=0;points=[];autosize=1;strokeColor=none;fillColor=none;" vertex="1" parent="1">
          <mxGeometry x="500" y="190" width="40" height="20" as="geometry" />
        </mxCell>
        <mxCell id="xrE74c7JUxFd1PG-Kwvo-70" value="" style="endArrow=classic;html=1;rounded=0;exitX=0.691;exitY=-0.133;exitDx=0;exitDy=0;exitPerimeter=0;" edge="1" parent="1" source="xrE74c7JUxFd1PG-Kwvo-46">
          <mxGeometry width="50" height="50" relative="1" as="geometry">
            <mxPoint x="740" y="110" as="sourcePoint" />
            <mxPoint x="790" y="60" as="targetPoint" />
          </mxGeometry>
        </mxCell>
        <mxCell id="xrE74c7JUxFd1PG-Kwvo-71" value="float" style="text;html=1;align=center;verticalAlign=middle;resizable=0;points=[];autosize=1;strokeColor=none;fillColor=none;" vertex="1" parent="1">
          <mxGeometry x="690" y="80" width="40" height="20" as="geometry" />
        </mxCell>
      </root>
    </mxGraphModel>
  </diagram>
</mxfile>
